<svg width="36" height="36" viewBox="0 0 36 36" fill="none" xmlns="http://www.w3.org/2000/svg">
<path fill-rule="evenodd" clip-rule="evenodd" d="M9 1H1V9H9V1ZM1 0H0V1V9V10H1H9H10V9V1V0H9H1ZM9 14H1V22H9V14ZM1 13H0V14V22V23H1H9H10V22V14V13H9H1ZM1 27H9V35H1V27ZM0 26H1H9H10V27V35V36H9H1H0V35V27V26ZM22 14H14V22H22V14ZM14 13H13V14V22V23H14H22H23V22V14V13H22H14ZM14 27H22V35H14V27ZM13 26H14H22H23V27V35V36H22H14H13V35V27V26ZM35 1H27V9H35V1ZM27 0H26V1V9V10H27H35H36V9V1V0H35H27ZM27 27H35V35H27V27ZM26 26H27H35H36V27V35V36H35H27H26V35V27V26Z" fill="#EEEEEE"/>
</svg>
