<svg width="22" height="22" viewBox="0 0 22 22" fill="none" xmlns="http://www.w3.org/2000/svg">
<path fill-rule="evenodd" clip-rule="evenodd" d="M2.54552 1.13127C2.15499 0.740745 1.52183 0.740745 1.1313 1.13127C0.740779 1.52179 0.740779 2.15496 1.1313 2.54548L9.84839 11.2626L1.1313 19.9797C0.740779 20.3702 0.740779 21.0034 1.1313 21.3939C1.52183 21.7844 2.15499 21.7844 2.54552 21.3939L11.2626 12.6768L19.9797 21.3939C20.3702 21.7844 21.0034 21.7844 21.3939 21.3939C21.7844 21.0033 21.7844 20.3702 21.3939 19.9796L12.6768 11.2626L21.3939 2.5455C21.7844 2.15498 21.7844 1.52181 21.3939 1.13129C21.0034 0.740761 20.3702 0.740762 19.9797 1.13129L11.2626 9.84836L2.54552 1.13127Z" fill="#EEEEEE"/>
</svg>
