<svg width="146" height="35" viewBox="0 0 146 35" fill="none" xmlns="http://www.w3.org/2000/svg">
<path d="M10.056 27.336C7.416 27.336 5.232 26.52 3.504 24.888C1.776 23.24 0.912 21.144 0.912 18.6C0.912 16.136 1.768 14.064 3.48 12.384C5.208 10.704 7.368 9.864 9.96 9.864C12.616 9.864 14.888 10.68 16.776 12.312L14.04 15.6C12.776 14.544 11.424 14.016 9.984 14.016C8.768 14.016 7.744 14.464 6.912 15.36C6.096 16.256 5.688 17.36 5.688 18.672C5.688 20.032 6.112 21.152 6.96 22.032C7.824 22.896 8.92 23.328 10.248 23.328C11.336 23.328 12.232 23.096 12.936 22.632V20.592H9.624V17.184H17.352V24.744C15.256 26.472 12.824 27.336 10.056 27.336ZM26.2933 27.312C24.2453 27.312 22.5413 26.656 21.1813 25.344C19.8213 24.016 19.1413 22.408 19.1413 20.52C19.1413 18.648 19.8213 17.048 21.1813 15.72C22.5573 14.392 24.2773 13.728 26.3413 13.728C28.3893 13.728 30.0933 14.392 31.4533 15.72C32.8133 17.032 33.4933 18.632 33.4933 20.52C33.4933 22.392 32.8053 23.992 31.4293 25.32C30.0693 26.648 28.3573 27.312 26.2933 27.312ZM26.3413 23.448C27.1573 23.448 27.8133 23.168 28.3093 22.608C28.8053 22.048 29.0533 21.352 29.0533 20.52C29.0533 19.72 28.7893 19.032 28.2613 18.456C27.7333 17.88 27.0773 17.592 26.2933 17.592C25.4773 17.592 24.8213 17.872 24.3253 18.432C23.8293 18.992 23.5813 19.688 23.5813 20.52C23.5813 21.32 23.8453 22.008 24.3733 22.584C24.9013 23.16 25.5573 23.448 26.3413 23.448ZM39.1393 27.288C37.8593 27.288 36.8113 26.936 35.9953 26.232C35.1793 25.512 34.7713 24.512 34.7713 23.232C34.7713 21.92 35.2273 20.912 36.1393 20.208C37.0513 19.504 38.2913 19.152 39.8593 19.152C40.9953 19.152 42.0353 19.32 42.9793 19.656V19.44C42.9793 18.032 42.1153 17.328 40.3873 17.328C39.2193 17.328 38.0273 17.568 36.8113 18.048L35.8753 14.832C37.5073 14.16 39.2593 13.824 41.1313 13.824C43.3713 13.824 45.0193 14.352 46.0753 15.408C47.0033 16.32 47.4673 17.696 47.4673 19.536V27H42.9553V25.656C41.9793 26.744 40.7073 27.288 39.1393 27.288ZM40.7713 24.432C41.4433 24.432 41.9873 24.24 42.4033 23.856C42.8193 23.456 43.0273 22.936 43.0273 22.296V21.696C42.4993 21.472 41.9073 21.36 41.2513 21.36C40.5953 21.36 40.0833 21.512 39.7153 21.816C39.3473 22.104 39.1633 22.504 39.1633 23.016C39.1633 23.448 39.3073 23.792 39.5953 24.048C39.8993 24.304 40.2913 24.432 40.7713 24.432ZM49.6625 27V12.4H53.4625V27H49.6625Z" fill="#EEEEEE"/>
<path d="M67.0986 0.399998C69.4799 0.399998 71.4686 1.198 73.0646 2.794C74.6606 4.39 75.4586 6.37867 75.4586 8.76C75.4586 11.1413 74.6606 13.13 73.0646 14.726C71.4686 16.322 69.4799 17.12 67.0986 17.12H60.2586V27H57.5986V0.399998H67.0986ZM67.0986 14.612C68.7453 14.612 70.1006 14.0673 71.1646 12.978C72.2539 11.8633 72.7986 10.4573 72.7986 8.76C72.7986 7.06267 72.2539 5.66933 71.1646 4.58C70.1006 3.46533 68.7453 2.908 67.0986 2.908H60.2586V14.612H67.0986ZM94.4512 8H96.9592V27H94.4512V23.276C92.7032 26.0627 90.1445 27.456 86.7752 27.456C84.0645 27.456 81.7465 26.4933 79.8212 24.568C77.9212 22.6427 76.9712 20.2867 76.9712 17.5C76.9712 14.7133 77.9212 12.3573 79.8212 10.432C81.7465 8.50667 84.0645 7.544 86.7752 7.544C90.1445 7.544 92.7032 8.93733 94.4512 11.724V8ZM81.6452 22.858C83.0892 24.302 84.8625 25.024 86.9652 25.024C89.0678 25.024 90.8412 24.302 92.2852 22.858C93.7292 21.3887 94.4512 19.6027 94.4512 17.5C94.4512 15.3973 93.7292 13.624 92.2852 12.18C90.8412 10.7107 89.0678 9.976 86.9652 9.976C84.8625 9.976 83.0892 10.7107 81.6452 12.18C80.2012 13.624 79.4792 15.3973 79.4792 17.5C79.4792 19.6027 80.2012 21.3887 81.6452 22.858ZM104.777 11.154C105.943 8.84867 107.944 7.696 110.781 7.696V10.128C109.059 10.128 107.627 10.6347 106.487 11.648C105.347 12.6613 104.777 14.2573 104.777 16.436V27H102.269V8H104.777V11.154ZM124.66 10.432H119.188V21.946C119.188 22.9847 119.39 23.732 119.796 24.188C120.201 24.6187 120.809 24.8467 121.62 24.872C122.43 24.872 123.444 24.8467 124.66 24.796V27C122 27.4053 119.998 27.2153 118.656 26.43C117.338 25.6447 116.68 24.15 116.68 21.946V10.432H112.69V8H116.68V3.44L119.188 2.68V8H124.66V10.432ZM142.891 8H145.551L137.419 28.748C136.684 30.6227 135.633 32.092 134.265 33.156C132.922 34.2453 131.415 34.7267 129.743 34.6V32.244C132.023 32.4973 133.758 31.18 134.949 28.292L135.443 27.114L126.931 8H129.591L136.735 23.922L142.891 8Z" fill="#5063EE"/>
</svg>
