<svg width="36" height="36" viewBox="0 0 36 36" fill="none" xmlns="http://www.w3.org/2000/svg">
<mask id="mask0" mask-type="alpha" maskUnits="userSpaceOnUse" x="21" y="4" width="10" height="10">
<rect x="21.0054" y="4.01355" width="9" height="9" fill="#C4C4C4"/>
</mask>
<g mask="url(#mask0)">
<path fill-rule="evenodd" clip-rule="evenodd" d="M27.0053 6.51355C27.0053 7.34198 26.3337 8.01355 25.5053 8.01355C24.6769 8.01355 24.0053 7.34198 24.0053 6.51355C24.0053 5.68512 24.6769 5.01355 25.5053 5.01355C26.3337 5.01355 27.0053 5.68512 27.0053 6.51355ZM26.3377 8.87163C27.3092 8.52869 28.0053 7.60241 28.0053 6.51355C28.0053 5.13284 26.886 4.01355 25.5053 4.01355C24.1246 4.01355 23.0053 5.13284 23.0053 6.51355C23.0053 7.60243 23.7015 8.52871 24.673 8.87164C22.5854 9.26207 21.0054 11.0939 21.0054 13.2948C21.0054 15.7801 23.0201 17.7948 25.5054 17.7948C27.9907 17.7948 30.0054 15.7801 30.0054 13.2948C30.0054 11.0939 28.4253 9.26204 26.3377 8.87163ZM29.0054 13.2948C29.0054 15.2278 27.4384 16.7948 25.5054 16.7948C23.5724 16.7948 22.0054 15.2278 22.0054 13.2948C22.0054 11.3618 23.5724 9.7948 25.5054 9.7948C27.4384 9.7948 29.0054 11.3618 29.0054 13.2948Z" fill="#EEEEEE"/>
</g>
<path fill-rule="evenodd" clip-rule="evenodd" d="M20.1985 0H20.4893H30.4465H30.7372L30.881 0.252737L35.8596 9.00293L36.0003 9.25019L35.8596 9.49745L31.0219 18.0001L35.8597 26.503L36.0004 26.7502L35.8597 26.9975L30.8811 35.7477L30.7373 36.0004H30.4465H20.4894H20.1986L20.0548 35.7477L15.22 27.2501H5.55384H5.26306L5.11926 26.9974L0.140684 18.2472L0 18L0.140684 17.7527L5.11926 9.00251L5.26306 8.74977H5.55384H15.2202L20.0547 0.252737L20.1985 0ZM19.914 18.0003L15.2201 26.2501H5.84462L1.15053 18L5.84462 9.74977H15.2197L19.914 18.0003ZM30.1559 17.5H20.7804L16.0862 9.24977L20.7801 1H30.1557L34.8498 9.25019L30.1559 17.5ZM16.0861 26.7503L20.7802 35.0004H30.1558L34.8498 26.7502L30.1559 18.5004H20.7801L16.0861 26.7503Z" fill="#EEEEEE"/>
<mask id="mask1" mask-type="alpha" maskUnits="userSpaceOnUse" x="21" y="22" width="10" height="10">
<rect x="21.0054" y="22.0135" width="9" height="9" fill="#C4C4C4"/>
</mask>
<g mask="url(#mask1)">
<path fill-rule="evenodd" clip-rule="evenodd" d="M27.0053 24.5135C27.0053 25.342 26.3337 26.0135 25.5053 26.0135C24.6769 26.0135 24.0053 25.342 24.0053 24.5135C24.0053 23.6851 24.6769 23.0135 25.5053 23.0135C26.3337 23.0135 27.0053 23.6851 27.0053 24.5135ZM26.3377 26.8716C27.3092 26.5287 28.0053 25.6024 28.0053 24.5135C28.0053 23.1328 26.886 22.0135 25.5053 22.0135C24.1246 22.0135 23.0053 23.1328 23.0053 24.5135C23.0053 25.6024 23.7015 26.5287 24.673 26.8716C22.5854 27.2621 21.0054 29.0939 21.0054 31.2948C21.0054 33.7801 23.0201 35.7948 25.5054 35.7948C27.9907 35.7948 30.0054 33.7801 30.0054 31.2948C30.0054 29.0939 28.4253 27.262 26.3377 26.8716ZM29.0054 31.2948C29.0054 33.2278 27.4384 34.7948 25.5054 34.7948C23.5724 34.7948 22.0054 33.2278 22.0054 31.2948C22.0054 29.3618 23.5724 27.7948 25.5054 27.7948C27.4384 27.7948 29.0054 29.3618 29.0054 31.2948Z" fill="#EEEEEE"/>
</g>
<mask id="mask2" mask-type="alpha" maskUnits="userSpaceOnUse" x="6" y="13" width="10" height="10">
<rect x="6.00537" y="13.0135" width="9" height="9" fill="#C4C4C4"/>
</mask>
<g mask="url(#mask2)">
<path fill-rule="evenodd" clip-rule="evenodd" d="M12.0053 15.5135C12.0053 16.342 11.3337 17.0135 10.5053 17.0135C9.6769 17.0135 9.00532 16.342 9.00532 15.5135C9.00532 14.6851 9.6769 14.0135 10.5053 14.0135C11.3337 14.0135 12.0053 14.6851 12.0053 15.5135ZM11.3377 17.8716C12.3092 17.5287 13.0053 16.6024 13.0053 15.5135C13.0053 14.1328 11.886 13.0135 10.5053 13.0135C9.12461 13.0135 8.00532 14.1328 8.00532 15.5135C8.00532 16.6024 8.70146 17.5287 9.67296 17.8716C7.58536 18.2621 6.00537 20.0939 6.00537 22.2948C6.00537 24.7801 8.02009 26.7948 10.5054 26.7948C12.9907 26.7948 15.0054 24.7801 15.0054 22.2948C15.0054 20.0939 13.4253 18.262 11.3377 17.8716ZM14.0054 22.2948C14.0054 24.2278 12.4384 25.7948 10.5054 25.7948C8.57237 25.7948 7.00537 24.2278 7.00537 22.2948C7.00537 20.3618 8.57237 18.7948 10.5054 18.7948C12.4384 18.7948 14.0054 20.3618 14.0054 22.2948Z" fill="#EEEEEE"/>
</g>
</svg>
