<svg width="27" height="32" viewBox="0 0 27 32" fill="none" xmlns="http://www.w3.org/2000/svg">
<path d="M23.2727 15.2727V13.0909C23.2727 8.48781 20.2 4.5934 15.9999 3.33797V2.90911C15.9999 1.30473 14.6945 0 13.0908 0C11.4871 0 10.1818 1.30473 10.1818 2.90911V3.33797C5.98185 4.5934 2.90904 8.48781 2.90904 13.0909V15.2727C2.90904 20.1143 1.76986 21.8153 0.93743 23.0575C0.455999 23.777 0 24.4566 0 25.4546C0 27.8256 4.94283 28.6576 8.95028 28.9442C9.51217 30.743 11.1616 32 13.0909 32C15.0202 32 16.6696 30.743 17.2315 28.9442C21.2389 28.6576 26.1818 27.8255 26.1818 25.4546C26.1818 24.4567 25.7258 23.777 25.2443 23.0576C24.4119 21.8154 23.2727 20.1144 23.2727 15.2727ZM11.6364 2.90911C11.6364 2.10729 12.2884 1.45459 13.0909 1.45459C13.8934 1.45459 14.5454 2.10729 14.5454 2.90911V3.02529C14.069 2.9567 13.586 2.90911 13.0909 2.90911C12.5958 2.90911 12.1128 2.9567 11.6364 3.02529V2.90911ZM13.0909 30.5454C12.0038 30.5454 11.0491 29.9455 10.5531 29.0354C11.5836 29.0789 12.4785 29.0909 13.0909 29.0909C13.7034 29.0909 14.5982 29.0789 15.6288 29.0354C15.1328 29.9455 14.178 30.5454 13.0909 30.5454ZM13.0909 27.6364C6.43035 27.6364 1.45452 26.4844 1.45452 25.4546C1.45452 24.9226 1.67897 24.5639 2.14629 23.8672C3.02843 22.549 4.36363 20.5568 4.36363 15.2727V13.0909C4.36363 8.27842 8.27842 4.36363 13.0909 4.36363C17.9034 4.36363 21.8181 8.27842 21.8181 13.0909V15.2727C21.8181 20.5568 23.1534 22.549 24.0355 23.8671C24.5028 24.5639 24.7273 24.9225 24.7273 25.4545C24.7273 26.4844 19.7514 27.6364 13.0909 27.6364Z" fill="#EEEEEE"/>
<circle cx="21.2725" cy="8.18185" r="4.0909" fill="#EB5757"/>
</svg>
