<svg width="32" height="32" viewBox="0 0 32 32" fill="none" xmlns="http://www.w3.org/2000/svg">
<mask id="mask0" mask-type="alpha" maskUnits="userSpaceOnUse" x="0" y="0" width="32" height="32">
<rect width="32" height="32" fill="#C4C4C4"/>
</mask>
<g mask="url(#mask0)">
<path fill-rule="evenodd" clip-rule="evenodd" d="M23.3889 8.88889C23.3889 12.9697 20.0808 16.2778 16 16.2778C11.9192 16.2778 8.61112 12.9697 8.61112 8.88889C8.61112 4.80812 11.9192 1.5 16 1.5C20.0808 1.5 23.3889 4.80812 23.3889 8.88889ZM18.9596 17.2732C22.4138 16.0539 24.8889 12.7604 24.8889 8.88889C24.8889 3.97969 20.9092 0 16 0C11.0908 0 7.11112 3.97969 7.11112 8.88889C7.11112 12.7604 9.58624 16.0539 13.0404 17.2732C5.61781 18.6613 0 25.1746 0 33C0 41.8366 7.16344 49 16 49C24.8366 49 32 41.8366 32 33C32 25.1746 26.3822 18.6614 18.9596 17.2732ZM30.5 33C30.5 41.0081 24.0081 47.5 16 47.5C7.99187 47.5 1.5 41.0081 1.5 33C1.5 24.9919 7.99187 18.5 16 18.5C24.0081 18.5 30.5 24.9919 30.5 33Z" fill="#5063EE"/>
</g>
</svg>
